<?xml version="1.0" encoding="utf-8"?>
<!-- Generator: Adobe Illustrator 19.0.0, SVG Export Plug-In . SVG Version: 6.00 Build 0)  -->
<svg version="1.1" xmlns="http://www.w3.org/2000/svg" xmlns:xlink="http://www.w3.org/1999/xlink" x="0px" y="0px"
	 viewBox="0 0 130.4 162" style="enable-background:new 0 0 130.4 162;" xml:space="preserve">
<style type="text/css">
	.st0{display:none;}
	.st1{display:inline;fill:#141821;}
	.st2{fill:#FFFFFF;}
	.st3{fill:#00B2A4;}
</style>
<g id="Layer_3" class="st0">
	<rect id="XMLID_2_" class="st1" width="1280" height="800"/>
</g>
<g id="Layer_2">
	<path id="XMLID_8_" class="st2" d="M100.8,37c-9.4-11.8-21.8-15.4-28.4-16.6c-17.9-3.1-34.3,4.8-42.6,14c-0.3,0.3-0.8,0.6-1,0.9
		C22.6,42.6,19,51.9,19,61.7V162h18V61.7c0-5.7,1.8-11,5.3-15.1c0.1-0.2,0.3-0.4,0.4-0.5c4.1-4.6,14.6-10.6,26.7-8.5
		c4.2,0.7,12,3,17.8,10.3c4.3,5.4,6.4,12.1,6.1,19.6c-0.1,2.7-0.4,9-4.6,14.6c-3.2,4.2-6.7,6.1-9.2,7.3c-8.2,4.1-16.5,4-22.5,3v17.5
		c8,1,19.2,0.5,30.2-5c3.3-1.6,9.9-5,15.5-12.5c7.5-10,7.8-20.4,8-24.3C111.2,56.5,107.7,45.7,100.8,37z"/>
	<polygon id="XMLID_9_" class="st3" points="127.1,162 92,112.3 78.6,122 106.9,162 	"/>
	<path id="XMLID_3_" class="st3" d="M116.2,24.8C102.7,7.9,85,2.7,75.7,1.1c-3.7-0.6-7.6-1-11.4-1c-18.6,0-37.4,8.1-49.2,21.2
		c-0.4,0.4-0.7,0.9-1.1,1.3C4.9,33.4,0,47.3,0,61.7V162h14v-14V61.7c0-10.8,3.9-21.3,10.9-29.6c0.4-0.5,0.9-0.9,1.2-1.1l0.1,0
		c7.2-7.8,20.9-16.2,38.2-16.2c3,0,5.9,0.3,8.8,0.8c7.3,1.3,21.1,5.3,31.5,18.4c7.7,9.7,11.5,21.6,11,34.4l0,0.1
		c-0.2,4.3-0.6,15.9-9,27c-6.4,8.5-14,12.2-17.3,13.8c-7.9,3.9-16.5,5.8-25.7,5.8c0,0,0,0,0,0c-2.3,0-4.5,0-6.7-0.2v14.9
		c2,0.2,4.4,0.3,6.7,0.3c11.5,0,22.2-2.5,32.1-7.4c4.2-2.1,14.1-7.1,22.6-18.3c11.2-14.9,11.8-30.3,12-35.3
		C131,52.5,126.1,37.2,116.2,24.8z"/>
</g>
</svg>
