<?xml version="1.0" encoding="utf-8"?>
<!-- Generator: Adobe Illustrator 19.0.0, SVG Export Plug-In . SVG Version: 6.00 Build 0)  -->
<svg version="1.1" id="Layer_1" xmlns="http://www.w3.org/2000/svg" xmlns:xlink="http://www.w3.org/1999/xlink" x="0px" y="0px"
	 viewBox="0 0 96.5 157.7" style="enable-background:new 0 0 96.5 157.7;" xml:space="preserve">
<style type="text/css">
	.st0{fill:#01B3A5;}
</style>
<path id="XMLID_57_" class="st0" d="M0.2,84.7c0-0.8,0-1.6,0-2.4c0.5-0.4,0.6-1,0.8-1.5c13.9-26,27.5-52.1,41.2-78.2
	c0.5-0.9,1-1.8,1.9-2.4c0.6,0,1.3,0,1.9,0c0.5,0.4,0.4,1,0.4,1.6c0,23.6,0,47.2,0,70.8c0,1.5-0.1,2.6-1.8,3
	c-0.4,0.1-0.7,0.3-1.1,0.6c-4,2.6-5.6,7.8-3.7,12c1.9,4.2,6.8,6.3,11.1,5c3.6-1.1,6.5-4.4,6.7-8.1c0.2-3.7-1.3-7.2-5.4-9.2
	c-1.4-0.7-2-1.7-2-3.2c0-2.1-0.1-4.2-0.1-6.2c0-21.6,0-43.3,0-64.9c0-0.5,0.1-0.9,0.4-1.1c0.6,0,1.3,0,1.9,0c1,0.6,1.6,1.4,2.1,2.4
	c6.9,13.2,13.8,26.5,20.8,39.7c6.8,13,13.6,26,20.5,39c1,1.9,0.9,3.5-0.4,5.3c-9.1,12.8-15.2,26.9-18,42.3c-0.4,2.5-0.8,4.9-1.2,7.4
	c-18.6,0-37,0-55.5,0c-0.5-2.6-1-5.2-1.5-7.7c-2.7-14.8-8.3-28.5-17.1-40.7C1.4,86.9,0.7,85.9,0.2,84.7z"/>
<path id="XMLID_51_" class="st0" d="M48.4,140c9.7,0,19.4,0,29.1,0c0.6,0,1.2,0,1.8,0.1c1.6,0.2,2.6,1.1,2.7,2.7
	c0.3,4.1,0.3,8.1,0,12.2c-0.1,1.6-1,2.4-2.5,2.6c-0.7,0.1-1.5,0.2-2.3,0.2c-19.2,0-38.5,0-57.7,0c-4.1,0-4.9-0.7-4.9-4.7
	c-0.1-3.2,0-6.3,0-9.5c0-2.3,1-3.4,3.3-3.6c0.5,0,1-0.1,1.6-0.1C29.2,140,38.8,140,48.4,140z"/>
</svg>
