<?xml version="1.0" encoding="utf-8"?>
<!-- Generator: Adobe Illustrator 19.0.0, SVG Export Plug-In . SVG Version: 6.00 Build 0)  -->
<svg version="1.1" id="Layer_1" xmlns="http://www.w3.org/2000/svg" xmlns:xlink="http://www.w3.org/1999/xlink" x="0px" y="0px"
	 viewBox="0 0 247.7 202.8" style="enable-background:new 0 0 247.7 202.8;" xml:space="preserve">
<style type="text/css">
	.st0{fill:#00B2A4;}
	.st1{fill:#048D81;}
</style>
<path id="XMLID_127_" class="st0" d="M46.6,0.2c63.7,0,127.4,0,191,0c0.1,0.1,0.2,0.2,0.3,0.2c4.7,0.8,7.6,3.6,9,8.1
	c0.9,3,1.1,6.1,1.1,9.1c0,39.8,0,79.6,0,119.4c0,0.4,0,0.7,0,1.1c-0.3,4.5-1.8,8.3-6.1,10.4c-2.3,1.1-4.9,1.5-7.5,1.5
	c-23,0-46,0-69,0c-0.5,0-1-0.1-1.4,0.1c-0.1,1.7,0.1,3.4,0.3,5c0.5,5.1,2.4,9.5,7,12.3c0.4,0.2,0.8,0.6,1.1,0.9c0.7,0.9,1,1.9,0.5,3
	c-0.5,1.1-1.3,1.7-2.5,1.8c-0.5,0.1-1,0.1-1.6,0.1c-19.1,0-38.2,0-57.2,0c-0.6,0-1.2,0-1.8,0c-2-0.1-3.2-1.9-2.6-3.8
	c0.3-0.9,0.9-1.6,1.7-2.1c6.5-3.9,7-10.4,7.3-17c-14.5,0-28.8,0-43.2,0c0,0.6,0,1,0,1.5c0,15.3,0,30.6-0.1,46c0,4.2-1.1,5.2-5.3,5.2
	c-20.8,0-41.6,0-62.4,0c-2.2,0-4.2-0.4-5-2.9c0-33.6,0-67.2,0-100.8c0.5-1.8,1.6-2.9,3.5-2.9c0.8,0,1.7-0.1,2.5-0.1
	c9.3,0,18.6,0,28,0c1.8,0,2.1-0.2,2.2-2c0.1-1.2,0-2.5,0-3.7c0-24.4,0-48.9,0-73.3c0-2.2,0.1-4.4,0.5-6.6c0.9-5.4,3.7-9.3,9.4-10.4
	C46.5,0.4,46.5,0.3,46.6,0.2z M45,96.4c0.7,0,1.2,0,1.6,0c6.7,0,13.4,0,20.2,0c0.9,0,1.8,0,2.8,0.1c2.1,0.2,2.9,1,3.3,3
	c0.1,0.5,0.1,1,0.1,1.5c0,11.8,0,23.7,0.1,35.5c0,0.5-0.1,1,0.2,1.5c1.2,0.1,2.4,0.2,3.5,0.2c47.4,0,94.8,0,142.2,0
	c2.7,0,5.4,0,8.2-0.1c5.7-0.1,9.8-2.8,11.4-7.7c0.6-1.9,0.9-3.8,0.9-5.8c0-16.4,0.1-32.9,0.1-49.3c0-17.5,0-35-0.1-52.4
	c0-1.2-0.1-2.5-0.3-3.7c-0.8-5.1-3.8-8.2-8.7-9.3c-1.7-0.4-3.4-0.5-5.1-0.5c-55.1,0-110.2,0-165.3,0c-1.4,0-2.7,0.1-4.1,0.2
	c-5.6,0.6-9.2,3.8-10.3,9.1c-0.4,1.8-0.4,3.7-0.4,5.5c0,23.5,0,47,0,70.5C45,95.2,45,95.7,45,96.4z M68.2,148.9
	C68.2,148.9,68.1,148.9,68.2,148.9c-0.1-8.1-0.1-16.2-0.1-24.2c0-3,0.1-5.9,0-8.9c-0.1-3-1.6-4.4-4.6-4.5c-0.4,0-0.7,0-1.1,0
	c-15.8,0-31.7,0-47.5,0c-1.9,0-3.8,0-5.8,0c-2.5,0.1-3.6,1.2-4,3.6c-0.1,0.5-0.1,1-0.1,1.6c0,5.6,0.1,11.1,0.1,16.7
	c0,15.8-0.1,31.6-0.1,47.4c0,4.6,1.4,5.9,5.9,5.9c3.5,0,7-0.1,10.6-0.1c13.2,0,26.5,0,39.7,0.1c1.2,0,2.5,0.1,3.7-0.2
	c1.6-0.4,2.6-1.3,3-2.9c0.2-0.8,0.2-1.6,0.2-2.4C68.2,170.3,68.2,159.6,68.2,148.9z M32.9,194.4c0,2.7,1.5,4.3,4.2,4.4
	c2.6,0,4.2-1.6,4.2-4.3c0-2.7-1.6-4.3-4.3-4.3C34.4,190.1,32.9,191.7,32.9,194.4z"/>
<path id="XMLID_114_" class="st1" d="M32.9,194.4c0-2.6,1.6-4.3,4.1-4.3c2.7,0,4.3,1.6,4.3,4.3c0,2.7-1.7,4.3-4.2,4.3
	C34.4,198.7,32.9,197.1,32.9,194.4z"/>
<path id="XMLID_113_" class="st0" d="M133,31c-25.3,0-50.5,0-75.8,0c-2.8,0-4.4-2.4-3.7-4.4c0.5-1.4,1.5-2.1,2.9-2.3
	c0.2,0,0.5,0,0.7,0c50.5,0,101,0,151.5,0c2.1,0,3.4,1,3.8,2.7c0.4,2-1,3.9-3.1,4c-0.4,0-0.8,0-1.2,0C183.1,31,158,31,133,31z"/>
<path id="XMLID_112_" class="st0" d="M132.9,39.3c25.2,0,50.5,0,75.7,0c2,0,3.2,0.7,3.7,2.2c0.7,2.1-0.6,4.2-2.8,4.5
	c-0.3,0-0.6,0-1,0c-50.4,0-100.8,0-151.3,0c-2.1,0-3.4-0.8-3.8-2.5c-0.5-2,0.9-4,3-4.2c0.4,0,0.9,0,1.3,0
	C82.8,39.3,107.9,39.3,132.9,39.3z"/>
<path id="XMLID_111_" class="st0" d="M86.6,61c-9.9,0-19.8,0-29.6,0c-2.5,0-4.2-2.1-3.4-4.4c0.4-1.3,1.4-2,2.7-2.3
	c0.3-0.1,0.6-0.1,0.8-0.1c19.7,0,39.4,0,59.1,0c2.2,0,3.6,1.3,3.7,3.2c0.1,2-1.4,3.5-3.4,3.5c-4.2,0-8.4,0-12.6,0
	C98.1,61,92.3,61,86.6,61z"/>
<path id="XMLID_110_" class="st0" d="M36.1,119c8.2,0,16.3,0,24.5,0c1.8,0,2.9,1.3,2.5,2.9c-0.2,0.9-0.8,1.5-1.8,1.7
	c-0.5,0.1-1,0.1-1.6,0.1c-15.8,0-31.6,0-47.4,0c-0.4,0-0.7,0-1.1,0c-1.5-0.2-2.4-1.2-2.3-2.5c0.1-1.3,1-2.2,2.5-2.2
	c4.9,0,9.8,0,14.8,0C29.6,119,32.8,119,36.1,119z"/>
<path id="XMLID_109_" class="st0" d="M36,134.2c-7.9,0-15.8,0-23.6,0c-0.5,0-1,0-1.4-0.1c-1.2-0.2-2-1.2-2-2.4c0-1.2,0.8-2.1,2-2.3
	c0.3,0,0.6,0,0.8,0c16.1,0,32.2,0,48.3,0c0.3,0,0.6,0,0.8,0c1.3,0.1,2.1,1.1,2.1,2.3c0,1.2-0.9,2.2-2.1,2.3c-0.4,0-0.9,0-1.3,0
	C51.9,134.2,44,134.2,36,134.2z"/>
<path id="XMLID_108_" class="st0" d="M20.3,140c2.9,0,5.8,0,8.6,0c1.7,0,2.7,0.9,2.8,2.3c0,1.5-1,2.5-2.8,2.5c-5.7,0-11.4,0-17.1,0
	c-1.7,0-2.8-1-2.8-2.4c0-1.4,1.1-2.3,2.8-2.3C14.6,140,17.4,140,20.3,140z"/>
</svg>
