<?xml version="1.0" encoding="utf-8"?>
<!-- Generator: Adobe Illustrator 19.0.0, SVG Export Plug-In . SVG Version: 6.00 Build 0)  -->
<svg version="1.1" xmlns="http://www.w3.org/2000/svg" xmlns:xlink="http://www.w3.org/1999/xlink" x="0px" y="0px"
	 viewBox="0 0 152.9 144.7" style="enable-background:new 0 0 152.9 144.7;" xml:space="preserve">
<style type="text/css">
	.st0{display:none;}
	.st1{fill:#01B2A5;}
	.st2{fill:#3FC5BA;}
</style>
<g id="Layer_2" class="st0">
</g>
<g id="Layer_1">
	<path id="XMLID_83_" class="st1" d="M0.2,27.8c0.4-0.2,0.2-0.7,0.3-1c0.6-3,2.2-4.5,5.2-5c1-0.2,2.1-0.3,3.1-0.3
		c4.8,0,9.5-0.1,14.3-0.1c21.7,0,43.4-0.1,65-0.1c1.8,0,3.6,0.2,5.5,0.3c-1.1,1.8-2,3.4-3,5.1c-0.7,1.1-1.5,2.2-2,3.4
		c-0.5,1.1-1.3,1.4-2.4,1.4c-24.7,0-49.4,0-74,0c-0.5,0-1,0-1.5,0c0,24.7,0,49.3,0,74c44,0,88,0,132.1,0c0-24.6,0-49.1,0-73.7
		c-7.2,0-14.4,0-21.7,0c0.4-1.7,1.2-3,2.1-4.3c1.4-1.9,3-3.7,4.4-5.5c0.3-0.4,0.6-0.3,0.9-0.3c6.5,0,13,0,19.6,0
		c0.5,0,0.9,0.2,1.3,0.5c2.7,2,3.7,4.7,3.7,7.9c0,12.3,0,24.6-0.1,36.8c0,10.9,0,21.8,0,32.8c0,5.6-0.1,11.2-0.1,16.8c0,5-2,6.9-7,7
		c-0.1,0-0.2,0-0.4,0c-36,0-71.9,0-107.9,0c-9.9,0-19.8,0-29.8,0c-0.8,0-1.7-0.1-2.5-0.2c-3.2-0.5-4.1-1.5-4.8-4.6
		c-0.1-0.5,0-1-0.4-1.4c0-0.6,0-1.3,0-1.9c0.4-0.3,0.2-0.7,0.2-1.1c0-7.5,0-15,0-22.5c0-0.4,0.1-0.8-0.2-1.1
		C0.2,69.6,0.2,48.7,0.2,27.8z"/>
	<path id="XMLID_82_" class="st1" d="M124.6,0.2c5.9,1.3,7.6,8.5,5.2,13.2c-1.4,2.8-3.4,5-5.4,7.3C108.7,37.8,93.1,54.9,77.5,72
		c-1.3,1.4-2.5,2.9-4,4.1c-0.7,0.6-1.3,0.6-2.1,0.3c-2.3-1-3.9-2.9-5.7-4.7c1.1-1.6,2.2-3.2,3.4-4.8C83.6,46.6,98,26.4,112.4,6.1
		c1-1.5,1.9-3,3.5-4.1c1.4-1,3-1.3,4.6-1.8C121.8,0.2,123.2,0.2,124.6,0.2z"/>
	<path id="XMLID_81_" class="st1" d="M55.2,145c-0.6-0.6-1.3,0-2.1-0.5c4.8-3.8,7.6-8.7,7.3-15.1c10.8-1.2,21.4-0.9,32.2-0.3
		c0.2,5.8,2,10.8,6.5,15c-3.2,0.2-6.1,0.4-9,0.6c-0.4,0-0.8-0.2-1.1,0.2C77.8,145,66.5,145,55.2,145z"/>
	<path id="XMLID_80_" class="st2" d="M0.2,90.5c0.4,0.3,0.2,0.7,0.2,1.1c0,7.5,0,15,0,22.5c0,0.4,0.2,0.8-0.2,1.1
		C0.2,107,0.2,98.7,0.2,90.5z"/>
	<path id="XMLID_79_" class="st1" d="M42.1,90.8c5.5-0.5,8.6-3.9,10.4-8.8c0.2-0.6,0.4-1.3,0.6-1.9c1.5-4.5,5.3-6.5,9.9-5.1
		c2.8,0.8,5.2,2.5,7,4.8c2.5,3.3,1.7,6.7-2,8.5c-3.6,1.8-7.4,2.7-11.4,3.1c-4.6,0.5-9.1,0.1-13.6-0.3C42.6,91.1,42.3,91.1,42.1,90.8
		z"/>
</g>
</svg>
